<mxfile host="app.diagrams.net" modified="2023-11-30T13:40:43.185Z" agent="Mozilla/5.0 (X11; Linux x86_64) AppleWebKit/537.36 (KHTML, like Gecko) Chrome/119.0.0.0 Safari/537.36" version="22.1.5" etag="eMmytk-rrRwOmeNTeoZC" type="github">
  <diagram name="Страница — 1" id="O0JRTFxQ9dn8JSf0MJVt">
    <mxGraphModel>
      <root>
        <mxCell id="0" />
        <mxCell id="1" parent="0" />
      </root>
    </mxGraphModel>
  </diagram>
</mxfile>
